# Created by Kenney (www.kenney.nl)

mtllib building-dock.mtl

g building-dock

v -1.270564E-13 0 -0.5773503 1 1 1
v 0.5 0 -0.2886751 1 1 1
v -1.270564E-13 0.1 -0.5773503 1 1 1
v 0.5 0.1 -0.2886751 1 1 1
v 0.5 0.1 0.2886751 1 1 1
v 0.5 0 0.2886751 1 1 1
v 1.277783E-13 0 0.5773503 1 1 1
v 1.277783E-13 0.1 0.5773503 1 1 1
v -0.5 0 0.2886751 1 1 1
v -0.5 0 -0.2886751 1 1 1
v 0.1097988 0.22 0.06039989 1 1 1
v 0.0854699 0.22 0.08394271 1 1 1
v 0.1015746 0.22 0.02755901 1 1 1
v 0.06902146 0.22 0.01826096 1 1 1
v 0.05291676 0.22 0.07464465 1 1 1
v 0.04469254 0.22 0.04180378 1 1 1
v 0.04480711 0.2 0.08249226 1 1 1
v 0.03384149 0.2 0.03870443 1 1 1
v 0.1206499 0.2 0.06349924 1 1 1
v 0.08821131 0.2 0.09488967 1 1 1
v 0.06628006 0.2 0.007313997 1 1 1
v 0.1096843 0.2 0.01971141 1 1 1
v 0.16778 0.22 -0.1081855 1 1 1
v 0.1278965 0.22 -0.06959069 1 1 1
v 0.1542976 0.22 -0.162023 1 1 1
v 0.1009318 0.22 -0.1772657 1 1 1
v 0.07453068 0.22 -0.08483341 1 1 1
v 0.06104835 0.22 -0.1386709 1 1 1
v 0.06123618 0.2 -0.07196848 1 1 1
v 0.04325975 0.2 -0.1437518 1 1 1
v 0.1855686 0.2 -0.1031046 1 1 1
v 0.1323906 0.2 -0.05164485 1 1 1
v 0.09643773 0.2 -0.1952115 1 1 1
v 0.1675921 0.2 -0.1748879 1 1 1
v 0.4660021 0.265 0.293562 1 1 1
v 0.1660021 0.265 0.293562 1 1 1
v 0.4660021 0.3 0.293562 1 1 1
v 0.1660021 0.3 0.293562 1 1 1
v 0.1660021 0.2 0.04356199 1 1 1
v 0.1660021 0.265 0.04356199 1 1 1
v 0.1660021 0.2 0.09356199 1 1 1
v 0.1660021 0.325 0.09356199 1 1 1
v 0.1660021 0.5 0.143562 1 1 1
v 0.1660021 0.325 0.193562 1 1 1
v 0.1660021 0.3 -0.006438017 1 1 1
v 0.1660021 0.265 -0.006438017 1 1 1
v 0.1660021 0.265 0.243562 1 1 1
v 0.1660021 0.2 0.243562 1 1 1
v 0.1660021 0.2 0.193562 1 1 1
v 0.4660021 0.265 -0.006438017 1 1 1
v 0.4660021 0.3 -0.006438017 1 1 1
v 0.4660021 0.5 0.143562 1 1 1
v -0.23 0.09999999 -0.06250004 1 1 1
v -0.23 0.09999999 -0.08750004 1 1 1
v -0.255 0.09999999 -0.06250004 1 1 1
v -0.255 0.09999999 -0.08750004 1 1 1
v -0.225 0.25 -0.09250005 1 1 1
v -0.225 0.25 -0.05750005 1 1 1
v -0.26 0.25 -0.09250005 1 1 1
v -0.26 0.25 -0.05750005 1 1 1
v -0.23 0.09999999 0.08750005 1 1 1
v -0.23 0.09999999 0.06250005 1 1 1
v -0.255 0.09999999 0.08750005 1 1 1
v -0.255 0.09999999 0.06250005 1 1 1
v -0.225 0.25 0.05750005 1 1 1
v -0.225 0.25 0.09250005 1 1 1
v -0.26 0.25 0.05750005 1 1 1
v -0.26 0.25 0.09250005 1 1 1
v -0.255 0.175 -0.1125 1 1 1
v 0 0.175 -0.1125 1 1 1
v -0.255 0.2 -0.1125 1 1 1
v 0 0.2 -0.1125 1 1 1
v 0 0.2 0.1125 1 1 1
v 0 0.175 0.1125 1 1 1
v -0.275 0.175 -0.09249999 1 1 1
v -0.275 0.2 -0.09249999 1 1 1
v -0.275 0.175 0.09249999 1 1 1
v -0.275 0.2 0.09249999 1 1 1
v -0.255 0.175 0.1125 1 1 1
v -0.255 0.2 0.1125 1 1 1
v -0.5 0.1 -0.2886751 1 1 1
v -0.5 0.1 0.2886751 1 1 1
v 0 0.1 -0.5773503 1 1 1
v 0 0.2 -0.5773503 1 1 1
v 0.5 0.2 -0.2886751 1 1 1
v 0.5 0.2 0.2886751 1 1 1
v 0 0.1 0.5773503 1 1 1
v 0 0.2 0.5773503 1 1 1
v 0.3719385 0.3386 -0.2277261 1 1 1
v 0.3116283 0.4926 -0.1857857 1 1 1
v 0.3013664 0.3386 -0.258525 1 1 1
v 0.3000787 0.4926 -0.1593211 1 1 1
v 0.3103407 0.3386 -0.08658177 1 1 1
v 0.2397686 0.3386 -0.1173807 1 1 1
v 0.3918251 0.3386 -0.1770406 1 1 1
v 0.3610263 0.3386 -0.1064684 1 1 1
v 0.3190858 0.4926 -0.1667786 1 1 1
v 0.219882 0.3386 -0.1680662 1 1 1
v 0.2506808 0.3386 -0.2386383 1 1 1
v 0.2926213 0.4926 -0.1783282 1 1 1
v 0.2565562 0.2616 -0.2521012 1 1 1
v 0.2664995 0.3386 -0.2267584 1 1 1
v 0.2140065 0.2616 -0.1546033 1 1 1
v 0.2393493 0.3386 -0.1645467 1 1 1
v 0.3854014 0.2616 -0.2218507 1 1 1
v 0.3600586 0.3386 -0.2119074 1 1 1
v 0.2879035 0.2616 -0.2644004 1 1 1
v 0.2978468 0.3386 -0.2390576 1 1 1
v 0.3551508 0.2616 -0.09300557 1 1 1
v 0.3452075 0.3386 -0.1183483 1 1 1
v 0.3977005 0.2616 -0.1905034 1 1 1
v 0.3723578 0.3386 -0.1805601 1 1 1
v 0.3238036 0.2616 -0.08070637 1 1 1
v 0.2263057 0.2616 -0.1232561 1 1 1
v 0.3138603 0.3386 -0.1060491 1 1 1
v 0.2516485 0.3386 -0.1331994 1 1 1
v 0.1431847 0.362 -0.4304318 1 1 1
v 0.1128269 0.542 -0.3501157 1 1 1
v 0.05480898 0.362 -0.4134101 1 1 1
v 0.11921 0.542 -0.3169748 1 1 1
v 0.177228 0.362 -0.2536803 1 1 1
v 0.08885227 0.362 -0.2366587 1 1 1
v 0.1958833 0.362 -0.3947547 1 1 1
v 0.212905 0.362 -0.3063791 1 1 1
v 0.1325889 0.542 -0.3367368 1 1 1
v 0.0361536 0.362 -0.2723357 1 1 1
v 0.01913196 0.362 -0.3607114 1 1 1
v 0.09944803 0.542 -0.3303537 1 1 1
v 0.01588479 0.272 -0.3775706 1 1 1
v 0.04223412 0.362 -0.3597321 1 1 1
v 0.03940077 0.272 -0.2554766 1 1 1
v 0.05723928 0.362 -0.2818259 1 1 1
v 0.1600439 0.272 -0.4336789 1 1 1
v 0.1422053 0.362 -0.4073296 1 1 1
v 0.03794981 0.272 -0.4101629 1 1 1
v 0.06429914 0.362 -0.3923244 1 1 1
v 0.2161522 0.272 -0.2895198 1 1 1
v 0.1898028 0.362 -0.3073584 1 1 1
v 0.1926362 0.272 -0.4116139 1 1 1
v 0.1747977 0.362 -0.3852646 1 1 1
v 0.1940871 0.272 -0.2569275 1 1 1
v 0.0719931 0.272 -0.2334116 1 1 1
v 0.1677378 0.362 -0.2747661 1 1 1
v 0.08983161 0.362 -0.2597609 1 1 1
v 0.4960021 0.4321052 0.2530357 1 1 1
v 0.4960021 0.404 0.215562 1 1 1
v 0.1360021 0.4321052 0.2530357 1 1 1
v 0.1360021 0.404 0.215562 1 1 1
v 0.4960021 0.5 0.143562 1 1 1
v 0.1360021 0.5 0.143562 1 1 1
v 0.1360021 0.4321052 0.03408831 1 1 1
v 0.1360021 0.5780702 0.143562 1 1 1
v 0.1360021 0.404 0.07156198 1 1 1
v 0.4960021 0.404 0.07156198 1 1 1
v 0.4960021 0.4321052 0.03408831 1 1 1
v 0.4960021 0.5780702 0.143562 1 1 1
v 0.4960021 0.422 0.04756199 1 1 1
v 0.1360021 0.422 0.04756199 1 1 1
v 0.1360021 0.276 0.311562 1 1 1
v 0.4960021 0.276 0.311562 1 1 1
v 0.4960021 0.422 0.239562 1 1 1
v 0.1360021 0.422 0.239562 1 1 1
v 0.4960021 0.294 0.335562 1 1 1
v 0.1360021 0.294 0.335562 1 1 1
v 0.1360021 0.294 -0.04843801 1 1 1
v 0.4960021 0.294 -0.04843801 1 1 1
v 0.4960021 0.276 -0.02443801 1 1 1
v 0.1360021 0.276 -0.02443801 1 1 1
v 0.1660021 0.2 0.293562 1 1 1
v 0.1660021 0.2 -0.006438017 1 1 1
v 0.4660021 0.2 -0.006438017 1 1 1
v 0.4660021 0.2 0.293562 1 1 1
v 0.2602366 0.2 -0.1546554 1 1 1
v 0.3237515 0.2 -0.1269364 1 1 1
v 0.2879556 0.2 -0.2181703 1 1 1
v 0.3514705 0.2 -0.1904514 1 1 1
v 0.2754422 0.2616 -0.1606214 1 1 1
v 0.2939216 0.2616 -0.2029647 1 1 1
v 0.3177855 0.2616 -0.1421421 1 1 1
v 0.3362648 0.2616 -0.1844854 1 1 1
v 0.08390915 0.2 -0.2861164 1 1 1
v 0.1634473 0.2 -0.3014359 1 1 1
v 0.06858967 0.2 -0.3656546 1 1 1
v 0.1481278 0.2 -0.3809741 1 1 1
v 0.09461226 0.272 -0.301926 1 1 1
v 0.08439927 0.272 -0.3549514 1 1 1
v 0.1476377 0.272 -0.312139 1 1 1
v 0.1374247 0.272 -0.3651644 1 1 1

vn 0.5 0 -0.8660254
vn 1 0 0
vn 0.5 0 0.8660254
vn 0 -1 0
vn 0 1 0
vn -0.6258641 0.4914186 0.6056416
vn -0.8374331 0.4914186 -0.2391935
vn 0.8374331 0.4914186 0.2391935
vn 0.2115689 0.4914186 0.8448351
vn -0.2115689 0.4914186 -0.8448351
vn 0.6258641 0.4914186 -0.6056416
vn -0.5275395 0.679042 0.5104939
vn -0.7058704 0.679042 -0.2016156
vn 0.7058704 0.679042 0.2016156
vn 0.1783309 0.679042 0.7121096
vn -0.1783309 0.679042 -0.7121096
vn 0.5275395 0.679042 -0.5104939
vn 0 0 1
vn -1 0 0
vn 0 0 -1
vn -0.9994449 -0.03331483 0
vn 0 -0.03331486 -0.9994449
vn 0 -0.0333148 0.9994449
vn 0.9994449 -0.03331483 0
vn -0.3826834 0 -0.9238795
vn -0.9238795 0 -0.3826834
vn -0.9238795 0 0.3826834
vn -0.3826834 0 0.9238795
vn -0.5 0 -0.8660254
vn -0.5 0 0.8660254
vn 0.660338 0.4268695 -0.6178479
vn 0.2526248 0.7753067 -0.5788612
vn 0.003954917 0.4268695 -0.9043046
vn -0.2526248 0.7753067 0.5788612
vn -0.003954917 0.4268695 0.9043046
vn -0.660338 0.4268695 0.6178479
vn 0.9043046 0.4268695 0.003954917
vn 0.6178479 0.4268695 0.660338
vn 0.5788612 0.7753067 0.2526248
vn -0.9043046 0.4268695 -0.003954917
vn -0.6178479 0.4268695 -0.660338
vn -0.5788612 0.7753067 -0.2526248
vn 0 -0.9999999 0
vn -0.6392448 0.3136402 -0.7021369
vn -0.6839684 0.3062446 -0.662119
vn -0.9495014 0.3136402 0.008781284
vn -0.9505738 0.3062446 -0.0512228
vn 0.7021369 0.3136402 -0.6392448
vn 0.662119 0.3062446 -0.6839684
vn -0.008781284 0.3136402 -0.9495014
vn 0.0512228 0.3062446 -0.9505738
vn 0.6392448 0.3136402 0.7021369
vn 0.6839684 0.3062446 0.662119
vn 0.9495014 0.3136402 -0.008781284
vn 0.9505738 0.3062446 0.0512228
vn 0.008781284 0.3136402 0.9495014
vn -0.7021369 0.3136402 0.6392448
vn -0.0512228 0.3062446 0.9505738
vn -0.662119 0.3062446 0.6839684
vn 0.1945688 0.4268695 -0.8831339
vn -0.1194513 0.7753068 -0.6201862
vn -0.5086737 0.4268695 -0.7476854
vn 0.1194513 0.7753068 0.6201862
vn 0.5086737 0.4268695 0.7476854
vn -0.1945688 0.4268695 0.8831339
vn 0.7476854 0.4268695 -0.5086737
vn 0.8831339 0.4268695 0.1945688
vn 0.6201862 0.7753068 -0.1194513
vn -0.7476854 0.4268695 0.5086737
vn -0.8831339 0.4268695 -0.1945688
vn -0.6201862 0.7753068 0.1194513
vn -0.9244345 0.3136402 -0.2169119
vn -0.9386472 0.3062446 -0.1586055
vn -0.7777325 0.3136402 0.5447587
vn -0.8125853 0.3062446 0.4959026
vn 0.2169119 0.3136402 -0.9244345
vn 0.1586055 0.3062446 -0.9386472
vn -0.5447587 0.3136402 -0.7777325
vn -0.4959026 0.3062446 -0.8125853
vn 0.9244345 0.3136402 0.2169119
vn 0.9386472 0.3062446 0.1586055
vn 0.7777325 0.3136402 -0.5447587
vn 0.8125853 0.3062446 -0.4959026
vn 0.5447587 0.3136402 0.7777325
vn -0.2169119 0.3136402 0.9244345
vn 0.4959026 0.3062446 0.8125853
vn -0.1586055 0.3062446 0.9386472
vn 0 -0.8 0.6
vn 0 -0.6 -0.8
vn 0 -0.8 -0.6
vn 0 0.6 -0.8
vn 0 0.6 0.8
vn 0 -0.6 0.8
vn 0 0.8 0.6
vn 0 0.8 -0.6
vn -0.9008236 0.1842885 -0.3931346
vn -0.3931346 0.1842885 0.9008236
vn 0.9008236 0.1842885 0.3931346
vn 0.3931346 0.1842885 -0.9008236
vn -0.9651335 0.1842885 0.1858901
vn 0.1858901 0.1842885 0.9651335
vn 0.9651335 0.1842885 -0.1858901
vn -0.1858901 0.1842885 -0.9651335

vt 0.90625 0.125
vt 0.96875 0.175
vt 0.96875 0.075
vt 0.96875 0.09666666
vt 0.96875 0.1083333
vt 0.96875 0.1166667
vt 0.15625 0.125
vt 0.34375 0.075
vt 0.34375 0.175
vt 0.09375 0.09114594
vt 0.09375 0.075
vt 0.09375 0.1301502
vt 0.09375 0.175
vt 0.09375 0.1626712
vt 0.09375 0.08732877
vt 0.09375 0.325
vt 0.09375 0.377
vt 0.09375 0.425
vt 0.09375 0.475
vt 0.09375 0.375

usemtl colormap

f 3/1/1 2/1/1 1/1/1
f 2/1/1 3/1/1 4/1/1
f 5/1/2 2/1/2 4/1/2
f 2/1/2 5/1/2 6/1/2
f 5/1/3 7/1/3 6/1/3
f 7/1/3 5/1/3 8/1/3
f 7/1/4 2/1/4 6/1/4
f 2/1/4 7/1/4 1/1/4
f 1/1/4 7/1/4 9/1/4
f 1/1/4 9/1/4 10/1/4
f 13/2/5 12/2/5 11/2/5
f 12/2/5 13/2/5 14/2/5
f 12/2/5 14/2/5 15/2/5
f 15/2/5 14/2/5 16/2/5
f 16/2/7 17/3/6 15/2/6
f 17/3/6 16/2/7 18/3/7
f 11/2/8 20/3/9 19/3/8
f 20/3/9 11/2/8 12/2/9
f 12/2/9 17/3/6 20/3/9
f 17/3/6 12/2/9 15/2/6
f 21/3/10 16/2/7 14/2/10
f 16/2/7 21/3/10 18/3/7
f 22/3/11 11/2/8 19/3/8
f 11/2/8 22/3/11 13/2/11
f 21/3/10 13/2/11 22/3/11
f 13/2/11 21/3/10 14/2/10
f 25/2/5 24/2/5 23/2/5
f 24/2/5 25/2/5 26/2/5
f 24/2/5 26/2/5 27/2/5
f 27/2/5 26/2/5 28/2/5
f 28/2/13 29/3/12 27/2/12
f 29/3/12 28/2/13 30/3/13
f 23/2/14 32/3/15 31/3/14
f 32/3/15 23/2/14 24/2/15
f 24/2/15 29/3/12 32/3/15
f 29/3/12 24/2/15 27/2/12
f 33/3/16 28/2/13 26/2/16
f 28/2/13 33/3/16 30/3/13
f 34/3/17 23/2/14 31/3/14
f 23/2/14 34/3/17 25/2/17
f 33/3/16 25/2/17 34/3/17
f 25/2/17 33/3/16 26/2/16
f 37/5/18 36/4/18 35/4/18
f 36/4/18 37/5/18 38/5/18
f 41/3/19 40/4/19 39/3/19
f 40/4/19 41/3/19 42/6/19
f 43/2/19 40/4/19 42/6/19
f 43/2/19 42/6/19 44/6/19
f 45/5/19 40/4/19 43/2/19
f 40/4/19 45/5/19 46/4/19
f 43/2/19 44/6/19 38/5/19
f 38/5/19 44/6/19 47/4/19
f 38/5/19 47/4/19 36/4/19
f 47/4/19 44/6/19 48/3/19
f 48/3/19 44/6/19 49/3/19
f 45/5/20 50/4/20 46/4/20
f 50/4/20 45/5/20 51/5/20
f 52/2/2 50/4/2 51/5/2
f 50/4/2 52/2/2 35/4/2
f 35/4/2 52/2/2 37/5/2
f 55/3/4 54/3/4 53/3/4
f 54/3/4 55/3/4 56/3/4
f 59/2/5 58/2/5 57/2/5
f 58/2/5 59/2/5 60/2/5
f 56/3/21 60/2/21 59/2/21
f 60/2/21 56/3/21 55/3/21
f 59/2/22 54/3/22 56/3/22
f 54/3/22 59/2/22 57/2/22
f 58/2/23 55/3/23 53/3/23
f 55/3/23 58/2/23 60/2/23
f 58/2/24 54/3/24 57/2/24
f 54/3/24 58/2/24 53/3/24
f 63/3/4 62/3/4 61/3/4
f 62/3/4 63/3/4 64/3/4
f 67/2/5 66/2/5 65/2/5
f 66/2/5 67/2/5 68/2/5
f 66/2/24 62/3/24 65/2/24
f 62/3/24 66/2/24 61/3/24
f 66/2/23 63/3/23 61/3/23
f 63/3/23 66/2/23 68/2/23
f 67/2/22 62/3/22 64/3/22
f 62/3/22 67/2/22 65/2/22
f 64/3/21 68/2/21 67/2/21
f 68/2/21 64/3/21 63/3/21
f 71/2/25 70/3/20 69/3/25
f 70/3/20 71/2/25 72/2/20
f 73/2/2 70/3/2 72/2/2
f 70/3/2 73/2/2 74/3/2
f 77/3/27 76/2/26 75/3/26
f 76/2/26 77/3/27 78/2/27
f 73/2/18 79/3/28 74/3/18
f 79/3/28 73/2/18 80/2/28
f 79/3/28 78/2/27 77/3/27
f 78/2/27 79/3/28 80/2/28
f 75/3/26 71/2/25 69/3/25
f 71/2/25 75/3/26 76/2/26
f 71/2/5 73/2/5 72/2/5
f 73/2/5 71/2/5 80/2/5
f 80/2/5 71/2/5 76/2/5
f 80/2/5 76/2/5 78/2/5
f 79/3/4 70/3/4 74/3/4
f 70/3/4 79/3/4 69/3/4
f 69/3/4 79/3/4 77/3/4
f 69/3/4 77/3/4 75/3/4
f 9/7/19 81/7/19 10/7/19
f 81/7/19 9/7/19 82/7/19
f 3/7/5 82/7/5 8/7/5
f 82/7/5 3/7/5 81/7/5
f 81/7/29 1/7/29 10/7/29
f 1/7/29 81/7/29 3/7/29
f 8/7/30 9/7/30 7/7/30
f 9/7/30 8/7/30 82/7/30
f 84/9/1 4/8/1 83/8/1
f 4/8/1 84/9/1 85/9/1
f 86/9/2 4/8/2 85/9/2
f 4/8/2 86/9/2 5/8/2
f 87/8/19 84/9/19 83/8/19
f 84/9/19 87/8/19 88/9/19
f 85/9/5 88/9/5 86/9/5
f 88/9/5 85/9/5 84/9/5
f 86/9/3 87/8/3 5/8/3
f 87/8/3 86/9/3 88/9/3
f 91/8/33 90/9/32 89/8/31
f 94/8/36 93/8/35 92/9/34
f 97/9/39 96/8/38 95/8/37
f 100/9/42 99/8/41 98/8/40
f 97/9/39 100/9/42 92/9/34
f 100/9/42 97/9/39 90/9/32
f 98/8/43 93/8/43 94/8/43
f 93/8/43 98/8/43 96/8/43
f 96/8/43 98/8/43 99/8/43
f 96/8/43 99/8/43 95/8/43
f 95/8/43 99/8/43 91/8/43
f 95/8/43 91/8/43 89/8/43
f 92/9/34 98/8/40 94/8/36
f 98/8/40 92/9/34 100/9/42
f 91/8/33 100/9/42 90/9/32
f 100/9/42 91/8/33 99/8/41
f 90/9/32 95/8/37 89/8/31
f 95/8/37 90/9/32 97/9/39
f 97/9/39 93/8/35 96/8/38
f 93/8/35 97/9/39 92/9/34
f 103/8/46 102/9/45 101/8/44
f 102/9/45 103/8/46 104/9/47
f 107/8/50 106/9/49 105/8/48
f 106/9/49 107/8/50 108/9/51
f 111/8/54 110/9/53 109/8/52
f 110/9/53 111/8/54 112/9/55
f 115/9/58 114/8/57 113/8/56
f 114/8/57 115/9/58 116/9/59
f 102/9/45 107/8/50 101/8/44
f 107/8/50 102/9/45 108/9/51
f 105/8/48 112/9/55 111/8/54
f 112/9/55 105/8/48 106/9/49
f 116/9/59 103/8/46 114/8/57
f 103/8/46 116/9/59 104/9/47
f 110/9/53 113/8/56 109/8/52
f 113/8/56 110/9/53 115/9/58
f 103/8/43 113/8/43 114/8/43
f 113/8/43 103/8/43 109/8/43
f 109/8/43 103/8/43 101/8/43
f 109/8/43 101/8/43 111/8/43
f 111/8/43 101/8/43 107/8/43
f 111/8/43 107/8/43 105/8/43
f 119/8/62 118/9/61 117/8/60
f 122/8/65 121/8/64 120/9/63
f 125/9/68 124/8/67 123/8/66
f 128/9/71 127/8/70 126/8/69
f 125/9/68 128/9/71 120/9/63
f 128/9/71 125/9/68 118/9/61
f 126/8/4 121/8/4 122/8/4
f 121/8/4 126/8/4 124/8/4
f 124/8/4 126/8/4 127/8/4
f 124/8/4 127/8/4 123/8/4
f 123/8/4 127/8/4 119/8/4
f 123/8/4 119/8/4 117/8/4
f 120/9/63 126/8/69 122/8/65
f 126/8/69 120/9/63 128/9/71
f 119/8/62 128/9/71 118/9/61
f 128/9/71 119/8/62 127/8/70
f 118/9/61 123/8/66 117/8/60
f 123/8/66 118/9/61 125/9/68
f 125/9/68 121/8/64 124/8/67
f 121/8/64 125/9/68 120/9/63
f 131/8/74 130/9/73 129/8/72
f 130/9/73 131/8/74 132/9/75
f 135/8/78 134/9/77 133/8/76
f 134/9/77 135/8/78 136/9/79
f 139/8/82 138/9/81 137/8/80
f 138/9/81 139/8/82 140/9/83
f 143/9/86 142/8/85 141/8/84
f 142/8/85 143/9/86 144/9/87
f 130/9/73 135/8/78 129/8/72
f 135/8/78 130/9/73 136/9/79
f 133/8/76 140/9/83 139/8/82
f 140/9/83 133/8/76 134/9/77
f 144/9/87 131/8/74 142/8/85
f 131/8/74 144/9/87 132/9/75
f 138/9/81 141/8/84 137/8/80
f 141/8/84 138/9/81 143/9/86
f 131/8/4 141/8/4 142/8/4
f 141/8/4 131/8/4 137/8/4
f 137/8/4 131/8/4 129/8/4
f 137/8/4 129/8/4 139/8/4
f 139/8/4 129/8/4 135/8/4
f 139/8/4 135/8/4 133/8/4
f 147/10/88 146/11/88 145/10/88
f 146/11/88 147/10/88 148/11/88
f 148/11/89 149/12/89 146/11/89
f 149/12/89 148/11/89 150/12/89
f 153/11/19 152/13/19 151/10/19
f 152/13/19 153/11/19 150/12/19
f 152/13/19 150/12/19 148/11/19
f 152/13/19 148/11/19 147/10/19
f 153/11/90 155/10/90 154/11/90
f 155/10/90 153/11/90 151/10/90
f 152/13/91 155/10/91 151/10/91
f 155/10/91 152/13/91 156/13/91
f 156/13/92 147/10/92 145/10/92
f 147/10/92 156/13/92 152/13/92
f 156/13/2 154/11/2 155/10/2
f 154/11/2 156/13/2 149/12/2
f 149/12/2 156/13/2 145/10/2
f 149/12/2 145/10/2 146/11/2
f 154/11/93 150/12/93 153/11/93
f 150/12/93 154/11/93 149/12/93
f 158/13/94 154/14/94 157/13/94
f 154/14/94 158/13/94 153/14/94
f 148/14/89 160/11/89 159/11/89
f 160/11/89 148/14/89 146/14/89
f 148/14/95 161/13/95 146/14/95
f 161/13/95 148/14/95 162/13/95
f 161/13/92 164/15/92 163/15/92
f 164/15/92 161/13/92 162/13/92
f 158/13/91 166/15/91 165/15/91
f 166/15/91 158/13/91 157/13/91
f 157/13/2 167/11/2 166/15/2
f 167/11/2 157/13/2 154/14/2
f 154/14/93 168/11/93 167/11/93
f 168/11/93 154/14/93 153/14/93
f 168/11/90 166/15/90 167/11/90
f 166/15/90 168/11/90 165/15/90
f 161/13/2 160/11/2 146/14/2
f 160/11/2 161/13/2 163/15/2
f 164/15/88 160/11/88 163/15/88
f 160/11/88 164/15/88 159/11/88
f 159/11/19 162/13/19 148/14/19
f 162/13/19 159/11/19 164/15/19
f 168/11/19 158/13/19 165/15/19
f 158/13/19 168/11/19 153/14/19
f 169/16/19 47/17/19 48/16/19
f 47/17/19 169/16/19 36/17/19
f 39/16/19 46/17/19 170/16/19
f 46/17/19 39/16/19 40/17/19
f 46/17/20 171/16/20 170/16/20
f 171/16/20 46/17/20 50/17/20
f 35/17/2 171/16/2 50/17/2
f 171/16/2 35/17/2 172/16/2
f 35/17/18 169/16/18 172/16/18
f 169/16/18 35/17/18 36/17/18
f 41/16/19 44/18/19 42/18/19
f 44/18/19 41/16/19 49/16/19
f 175/19/43 174/19/43 173/19/43
f 174/19/43 175/19/43 176/19/43
f 177/20/96 175/19/96 173/19/96
f 175/19/96 177/20/96 178/20/96
f 179/20/97 173/19/97 174/19/97
f 173/19/97 179/20/97 177/20/97
f 180/20/98 174/19/98 176/19/98
f 174/19/98 180/20/98 179/20/98
f 175/19/99 180/20/99 176/19/99
f 180/20/99 175/19/99 178/20/99
f 183/19/4 182/19/4 181/19/4
f 182/19/4 183/19/4 184/19/4
f 185/20/100 183/19/100 181/19/100
f 183/19/100 185/20/100 186/20/100
f 187/20/101 181/19/101 182/19/101
f 181/19/101 187/20/101 185/20/101
f 188/20/102 182/19/102 184/19/102
f 182/19/102 188/20/102 187/20/102
f 183/19/103 188/20/103 184/19/103
f 188/20/103 183/19/103 186/20/103
